<?xml version="1.0" standalone="no"?>
<!DOCTYPE svg PUBLIC "-//W3C//DTD SVG 20010904//EN"
 "http://www.w3.org/TR/2001/REC-SVG-20010904/DTD/svg10.dtd">
<svg version="1.0" xmlns="http://www.w3.org/2000/svg"
 width="300.000000pt" height="300.000000pt" viewBox="0 0 300.000000 300.000000"
 preserveAspectRatio="xMidYMid meet">
<metadata>
Created by potrace 1.10, written by Peter Selinger 2001-2011
</metadata>
<g transform="translate(0.000000,300.000000) scale(0.050000,-0.050000)"
fill="#fff4d6" stroke="none">
<path d="M2605 5407 c-47 -19 -7 -40 56 -31 45 6 55 14 36 26 -30 19 -54 20
-92 5z"/>
<path d="M2770 5400 c-31 -13 -22 -17 43 -19 47 0 88 -12 94 -26 7 -19 15 -18
30 4 38 54 -73 81 -167 41z"/>
<path d="M3080 5382 c-40 -12 -27 -18 68 -30 65 -9 133 -20 150 -26 19 -5 13
7 -15 32 -48 43 -112 50 -203 24z"/>
<path d="M2490 5328 c-22 -17 -38 -38 -36 -48 12 -43 -57 -35 -78 10 -31 69
-56 43 -56 -59 l0 -86 -75 26 c-96 35 -165 36 -164 4 0 -14 8 -63 17 -110 12
-62 9 -95 -12 -125 -25 -35 -24 -40 2 -40 16 0 37 13 46 29 9 16 48 43 86 59
39 17 54 31 35 31 -19 1 -35 10 -35 21 0 27 95 25 104 -2 22 -67 214 -92 313
-40 40 21 125 49 188 61 114 24 132 43 95 101 -15 24 -20 20 -21 -20 -2 -45
-3 -46 -18 -10 -9 22 -12 47 -7 56 5 9 -1 28 -14 44 -13 16 -18 38 -11 49 15
23 -10 27 -57 9 -45 -17 -40 -63 8 -78 22 -7 40 -26 40 -41 0 -42 -23 -36 -85
22 -31 28 -63 46 -73 40 -10 -6 -47 1 -83 16 -36 16 -53 32 -38 37 15 5 21 22
13 42 -16 41 -32 42 -84 2z"/>
<path d="M3554 5190 c24 -17 69 -34 100 -38 31 -4 43 -2 26 3 -16 5 -48 22
-69 37 -22 16 -53 28 -70 28 -21 0 -17 -9 13 -30z"/>
<path d="M1913 5100 c-31 -10 -69 -13 -85 -7 -15 6 -28 1 -28 -11 0 -31 100
-26 160 8 56 32 39 35 -47 10z"/>
<path d="M3823 5003 c26 -42 204 -93 191 -55 -4 12 -35 25 -69 28 -34 4 -73
19 -86 35 -35 42 -63 35 -36 -8z"/>
<path d="M3713 4923 c46 -46 88 -94 93 -108 4 -14 16 -18 25 -10 22 21 -25
115 -58 115 -15 0 -54 19 -85 43 -36 26 -26 10 25 -40z"/>
<path d="M1776 4962 c-133 -12 -252 -93 -255 -173 -1 -12 -41 -82 -91 -156
-101 -150 -102 -153 -60 -153 39 0 38 -87 -1 -260 -16 -71 -35 -254 -42 -405
l-13 -275 95 0 c110 0 231 -96 231 -183 0 -50 81 -102 179 -114 11 -2 15 -16
8 -33 -7 -19 0 -30 19 -30 32 0 126 134 108 153 -18 17 -54 -12 -54 -44 0 -16
-13 -29 -30 -29 -46 0 -36 40 21 84 35 28 47 52 38 78 -8 27 -2 38 22 38 22 0
29 11 21 31 -7 19 -3 26 10 18 11 -7 40 7 62 31 29 31 35 49 18 58 -48 30 -9
322 43 322 31 0 74 65 74 113 1 23 14 48 30 54 22 8 28 47 26 162 -4 165 -32
159 -39 -8 -3 -59 -17 -113 -33 -127 -22 -18 -26 -15 -19 17 5 21 -3 63 -17
92 -22 45 -21 57 4 77 38 32 38 68 -1 53 -36 -14 -40 29 -6 63 17 17 17 24 2
24 -13 0 -29 27 -36 60 -7 33 -21 60 -31 60 -10 0 -13 14 -6 30 6 17 2 30 -9
30 -12 0 -36 15 -55 34 -32 32 -34 32 -21 -7 8 -27 -1 -52 -29 -78 -35 -32
-39 -32 -28 -3 7 19 22 34 33 34 11 0 0 16 -24 36 -41 33 -42 39 -14 68 19 18
27 48 20 73 -7 31 -1 43 22 43 42 0 41 19 -3 53 -33 26 -33 28 0 54 35 27 27
56 -13 50 -12 -2 -82 -9 -156 -15z m-5 -64 c7 -12 34 -16 59 -10 70 18 107
-149 39 -176 -21 -8 -27 -25 -19 -52 8 -24 4 -40 -10 -40 -12 0 -17 9 -10 20
7 11 2 20 -11 20 -14 0 -19 17 -13 42 l11 43 -45 -43 c-56 -52 -75 -53 -112
-2 -36 49 -60 51 -61 5 -1 -50 -47 -105 -89 -105 -34 0 -34 2 -3 37 18 20 33
49 33 66 0 16 18 49 41 73 23 25 36 53 30 63 -15 23 66 81 112 81 19 0 41 -10
48 -22z"/>
<path d="M4020 4880 c0 -11 9 -20 20 -20 11 0 20 -15 20 -34 0 -30 3 -30 27 4
26 35 29 34 64 -22 21 -32 58 -80 84 -106 32 -34 40 -55 26 -69 -32 -32 -25
-53 18 -53 54 0 69 34 32 72 -17 17 -31 44 -31 59 0 15 -23 43 -51 62 -38 25
-45 37 -25 49 39 24 -1 51 -99 66 -52 8 -85 5 -85 -8z"/>
<path d="M2009 4758 c-17 -28 21 -67 48 -50 23 15 9 72 -18 72 -9 0 -23 -10
-30 -22z"/>
<path d="M3957 4520 c26 -11 74 -39 106 -62 33 -23 65 -37 72 -30 25 26 -67
89 -145 101 -66 10 -72 8 -33 -9z"/>
<path d="M2357 4453 c-19 -14 -40 -61 -47 -104 l-13 -79 52 88 c57 96 60 133
8 95z"/>
<path d="M4301 4409 c1 -26 139 -162 139 -137 0 11 -31 51 -70 88 -38 37 -70
59 -69 49z"/>
<path d="M1300 3406 c-90 -14 -151 -212 -83 -273 41 -38 63 -42 63 -13 0 11
-13 20 -30 20 -39 0 -39 84 0 161 49 94 159 101 268 16 26 -21 53 -32 60 -25
7 7 -5 23 -25 35 -20 13 -55 39 -78 58 -40 34 -70 38 -175 21z"/>
<path d="M2892 3326 c-30 -30 -3 -37 129 -31 147 6 298 -23 324 -62 9 -15 14
-10 15 12 0 19 13 35 29 35 18 0 25 -12 18 -30 -8 -22 3 -30 41 -30 67 0 67
-34 1 -64 -40 -18 -55 -18 -67 1 -16 26 -210 -4 -254 -40 -13 -10 -40 -12 -60
-5 -26 8 -30 6 -13 -7 20 -14 17 -26 -15 -55 -56 -51 -51 -61 42 -99 96 -38
130 -28 39 12 -33 14 -65 38 -70 52 -13 34 -5 32 77 -17 39 -22 79 -36 89 -30
10 6 41 -6 68 -28 l51 -39 11 44 c7 25 13 70 13 100 0 62 -1 62 69 35 54 -20
67 -76 27 -116 -19 -19 -15 -24 18 -24 24 0 47 -11 51 -25 7 -18 20 -16 49 10
43 39 86 46 86 15 0 -11 -10 -20 -21 -20 -28 0 -141 -124 -127 -139 7 -6 31
13 55 43 24 29 68 63 99 75 43 16 54 30 45 61 -6 22 -16 58 -22 80 -8 28 -2
40 20 40 18 0 31 17 31 39 0 29 -10 37 -35 29 -30 -10 -29 -7 4 20 44 36 80
43 60 11 -13 -22 24 -79 53 -79 23 0 -1 124 -30 152 -51 49 -858 116 -900 74z"/>
<path d="M4366 3181 c-226 -49 -303 -191 -227 -418 21 -62 37 -135 37 -163 -1
-27 22 -104 51 -170 32 -73 52 -103 53 -76 0 25 -13 74 -28 110 -23 54 -58
222 -78 376 -3 22 13 28 61 23 59 -5 65 -1 65 48 0 43 7 50 35 39 19 -8 47
-15 63 -16 15 0 32 -17 37 -37 11 -44 65 -50 65 -8 0 16 36 71 81 122 84 97
83 159 -3 186 -19 6 -16 -5 9 -33 56 -63 -110 -249 -170 -189 -24 24 10 65 63
75 68 13 91 42 61 78 -13 17 -19 39 -12 50 21 34 -16 35 -163 3z"/>
<path d="M1840 3140 c0 -11 9 -20 19 -20 66 0 69 -274 9 -617 -29 -162 -25
-222 12 -163 10 16 25 21 34 12 9 -9 -4 -30 -29 -47 -35 -23 -45 -49 -45 -116
0 -48 -10 -93 -22 -100 -16 -10 -16 -18 1 -28 41 -26 0 -85 -50 -72 -53 13
-85 -21 -51 -55 12 -12 22 -42 22 -66 0 -25 15 -75 33 -111 61 -122 67 -136
67 -167 0 -38 -10 -38 -71 3 -86 56 -71 21 52 -120 66 -74 119 -143 119 -153
0 -44 -49 -39 -122 11 -105 73 -119 53 -19 -28 50 -40 90 -58 112 -50 32 12
68 -21 68 -63 0 -11 -7 -8 -17 7 -10 16 -29 24 -42 20 -30 -10 670 -717 710
-717 15 0 71 51 124 113 53 63 119 139 146 171 l50 56 380 11 c523 15 510 13
562 81 94 121 78 214 -23 140 -34 -26 -47 -24 -102 10 -34 21 -77 33 -95 26
-19 -7 -32 -2 -32 12 0 18 -7 19 -26 4 -27 -23 -134 -7 -204 31 -109 59 -214
105 -241 105 -41 0 -72 89 -51 146 12 31 9 57 -10 84 -38 51 -35 129 6 175 29
31 30 44 8 79 -22 35 -20 49 13 94 49 65 144 82 158 27 8 -30 25 -36 88 -31
44 3 79 -2 79 -13 0 -19 129 -38 330 -48 99 -5 134 3 200 44 44 27 91 50 105
50 14 0 25 12 25 26 0 15 -13 27 -30 27 -19 0 -30 19 -30 50 0 38 11 50 42 50
36 0 39 -5 18 -30 -26 -31 -10 -40 55 -31 33 4 32 -49 -2 -83 -38 -38 -56
-163 -19 -133 89 74 161 317 94 317 -15 0 -28 8 -28 17 0 9 -65 14 -145 11
-178 -8 -307 38 -233 83 12 7 32 3 44 -9 25 -25 74 -30 74 -6 0 34 -121 84
-203 84 -164 1 -265 117 -158 184 56 35 53 63 -4 31 -93 -53 -119 -215 -34
-215 46 0 59 -44 51 -163 -9 -123 -24 -144 -94 -130 -37 8 -56 4 -53 -10 3
-12 -6 -26 -20 -31 -34 -13 -56 51 -32 92 42 71 -10 136 -53 67 -18 -28 -21
-20 -12 40 6 45 2 71 -9 64 -11 -6 -70 -16 -133 -21 -131 -11 -143 -18 -193
-122 -21 -42 -45 -91 -54 -110 -10 -18 -10 -36 -1 -40 25 -9 42 -103 25 -132
-19 -30 -83 -10 -83 26 0 14 -13 31 -30 37 -16 7 -30 26 -30 42 0 17 -10 29
-22 26 -13 -3 -28 8 -33 23 -8 21 0 25 26 14 36 -13 36 -12 0 27 -20 22 -54
46 -75 52 -23 8 -34 24 -28 41 12 31 1 33 -58 10 -57 -23 -238 42 -247 88 -10
52 -184 214 -216 201 -15 -5 -27 -1 -27 10 0 10 8 19 19 19 37 0 30 92 -13
157 -31 47 -41 83 -33 125 7 34 4 58 -9 58 -44 0 -84 -25 -84 -53 0 -16 -9
-24 -19 -17 -13 7 -13 30 0 62 25 66 24 68 -11 68 -16 0 -30 -17 -30 -39 0
-21 -8 -44 -18 -50 -9 -6 -17 60 -16 145 2 176 -37 344 -79 344 -15 0 -27 -9
-27 -20z"/>
<path d="M1400 3012 c0 -47 56 -101 148 -142 58 -26 120 -70 139 -98 49 -75
72 -64 43 21 -16 47 -19 95 -9 132 15 50 13 55 -12 34 -16 -13 -29 -36 -29
-51 0 -56 -139 -10 -235 78 -25 22 -45 34 -45 26z"/>
<path d="M2012 2986 c-8 -25 -4 -63 8 -87 13 -23 18 -55 12 -71 -6 -15 -2 -28
9 -28 22 0 22 105 1 180 -15 50 -15 50 -30 6z"/>
<path d="M2743 2991 c18 -20 72 -43 120 -52 48 -9 105 -22 127 -29 40 -13 40
-13 0 13 -22 15 -76 36 -120 49 -44 12 -98 29 -120 38 -37 15 -38 13 -7 -19z"/>
<path d="M1253 2735 c-20 -74 -15 -315 7 -315 11 0 21 34 23 75 4 118 10 173
25 207 8 18 2 42 -15 55 -23 19 -30 15 -40 -22z"/>
<path d="M3052 2740 c26 -26 252 -103 265 -90 14 14 7 17 -124 66 -128 48
-173 56 -141 24z"/>
<path d="M3305 2247 c-14 -6 -25 -23 -25 -38 0 -23 10 -24 50 -5 78 35 55 75
-25 43z"/>
<path d="M4313 1880 c-18 -38 -48 -97 -68 -130 -117 -195 -187 -333 -181 -352
4 -13 49 48 100 135 130 223 200 366 190 394 -5 12 -23 -8 -41 -47z"/>
<path d="M3752 1593 c-69 -64 -80 -66 -66 -13 6 22 6 40 2 40 -20 0 -84 -128
-75 -151 5 -14 0 -31 -12 -38 -35 -22 -25 -91 14 -93 19 -1 67 -3 105 -5 39
-1 80 -16 92 -31 35 -44 68 -7 68 76 0 42 14 103 30 137 18 34 24 76 16 98
-13 33 -15 31 -26 -13 -15 -64 -65 -65 -80 -2 l-11 48 -57 -53z"/>
</g>
</svg>
